<?xml version="1.0" encoding="UTF-8"?>
<svg xmlns="http://www.w3.org/2000/svg" id="Layer_1" data-name="Layer 1" viewBox="0 0 24 24" width="512" height="512"><path d="m23.465,9.746l-3.763-6.5c-.802-1.385-2.294-2.246-3.895-2.246h-7.545c-1.6,0-3.092.86-3.895,2.246L.605,9.746c-.806,1.391-.806,3.118,0,4.509l3.763,6.5c.803,1.385,2.295,2.245,3.895,2.245h7.545c1.601,0,3.093-.86,3.895-2.245l3.763-6.5c.806-1.391.806-3.119,0-4.509Zm-.865,4.007l-3.763,6.501c-.623,1.077-1.784,1.746-3.029,1.746h-7.545c-1.244,0-2.405-.669-3.029-1.747l-3.763-6.5c-.626-1.081-.626-2.425,0-3.506l3.763-6.5c.624-1.077,1.785-1.747,3.029-1.747h7.545c1.245,0,2.406.669,3.029,1.747l3.763,6.5c.626,1.082.626,2.425,0,3.506Zm-5.6-1.753c0,.276-.224.5-.5.5h-4v4c0,.276-.224.5-.5.5s-.5-.224-.5-.5v-4h-4c-.276,0-.5-.224-.5-.5s.224-.5.5-.5h4v-4c0-.276.224-.5.5-.5s.5.224.5.5v4h4c.276,0,.5.224.5.5Z"/></svg>
