<?xml version="1.0" encoding="UTF-8"?>
<svg xmlns="http://www.w3.org/2000/svg" xmlns:xlink="http://www.w3.org/1999/xlink" width="256px" height="255px" viewBox="0 0 255 255" version="1.1">
<g id="surface1">
<path style=" stroke:none;fill-rule:nonzero;fill:rgb(0%,0%,0%);fill-opacity:1;" d="M 127.5 0 C 57.195312 0 0 57.195312 0 127.5 C 0 197.804688 57.195312 255 127.5 255 C 197.804688 255 255 197.804688 255 127.5 C 255 57.195312 197.804688 0 127.5 0 Z M 74.375 231.59375 L 74.375 223.125 C 74.375 193.832031 98.207031 170 127.5 170 C 156.792969 170 180.625 193.832031 180.625 223.125 L 180.625 231.59375 C 164.675781 239.765625 146.613281 244.375 127.5 244.375 C 108.386719 244.375 90.324219 239.765625 74.375 231.59375 Z M 191.25 225.410156 L 191.25 223.125 C 191.25 187.96875 162.65625 159.375 127.5 159.375 C 92.34375 159.375 63.75 187.96875 63.75 223.125 L 63.75 225.410156 C 31.789062 204.53125 10.625 168.4375 10.625 127.5 C 10.625 63.058594 63.058594 10.625 127.5 10.625 C 191.941406 10.625 244.375 63.058594 244.375 127.5 C 244.375 168.4375 223.210938 204.53125 191.25 225.410156 Z M 127.5 53.125 C 104.0625 53.125 85 72.1875 85 95.625 C 85 119.0625 104.0625 138.125 127.5 138.125 C 150.9375 138.125 170 119.0625 170 95.625 C 170 72.1875 150.9375 53.125 127.5 53.125 Z M 127.5 127.5 C 109.925781 127.5 95.625 113.199219 95.625 95.625 C 95.625 78.050781 109.925781 63.75 127.5 63.75 C 145.074219 63.75 159.375 78.050781 159.375 95.625 C 159.375 113.199219 145.074219 127.5 127.5 127.5 Z M 127.5 127.5 "/>
</g>
</svg>
